<svg width="542" height="250" fill="none" xmlns="http://www.w3.org/2000/svg"><g filter="url(#filter0_i)"><path d="M196.5 148.25v32h-18.75V210H143v-29.75H60.25v-32L118.5 35h37l-58 113.25H143v-41.5h34.75v41.5h18.75zm82.27 65.25c-21.834 0-39-8.25-51.5-24.75-12.334-16.667-18.5-38.75-18.5-66.25s6.166-49.5 18.5-66c12.5-16.667 29.666-25 51.5-25 22 0 39.166 8.333 51.5 25 12.333 16.5 18.5 38.5 18.5 66s-6.167 49.583-18.5 66.25c-12.334 16.5-29.5 24.75-51.5 24.75zm-26.5-48.25c6 9.667 14.833 14.5 26.5 14.5 11.666 0 20.5-4.917 26.5-14.75 6.166-9.833 9.25-24 9.25-42.5 0-18.667-3.084-32.917-9.25-42.75-6-9.833-14.834-14.75-26.5-14.75-11.667 0-20.5 4.917-26.5 14.75s-9 24.083-9 42.75 3 32.917 9 42.75zm246.72-17v32h-18.75V210h-34.75v-29.75h-82.75v-32L420.99 35h37l-58 113.25h45.5v-41.5h34.75v41.5h18.75z" fill="#fff"/></g><path fill="url(#paint0_linear)" d="M0 107h542v124H0z"/><defs><linearGradient id="paint0_linear" x1="271" y1="107" x2="271" y2="231" gradientUnits="userSpaceOnUse"><stop stop-color="#525252" stop-opacity="0"/><stop offset="1" stop-color="#525252"/></linearGradient><filter id="filter0_i" x="60.25" y="31.5" width="438.74" height="188" filterUnits="userSpaceOnUse" color-interpolation-filters="sRGB"><feFlood flood-opacity="0" result="BackgroundImageFix"/><feBlend in="SourceGraphic" in2="BackgroundImageFix" result="shape"/><feColorMatrix in="SourceAlpha" values="0 0 0 0 0 0 0 0 0 0 0 0 0 0 0 0 0 0 127 0" result="hardAlpha"/><feOffset dy="6"/><feGaussianBlur stdDeviation="8"/><feComposite in2="hardAlpha" operator="arithmetic" k2="-1" k3="1"/><feColorMatrix values="0 0 0 0 0 0 0 0 0 0 0 0 0 0 0 0 0 0 0.17 0"/><feBlend in2="shape" result="effect1_innerShadow"/></filter></defs></svg>