<svg width="290" height="58" fill="none" xmlns="http://www.w3.org/2000/svg"><path d="M89.37 31.306c3.467.311 7.141-.777 9.78-3.11h.156l-2.38 6.946H74.88v-.155c2.691-.933 2.38-4.873 2.38-7.257V7.723c0-2.436.311-6.324-2.38-7.308V.259h18.578c.88 0 1.811.104 2.484-.259h.155v6.168h-.155c-1.656-1.918-3.83-2.125-6.261-2.125-1.863 0-5.33.052-7.038.363v9.848h7.917c.828 0 1.708 0 2.329-.311h.155v5.598h-.155c-.828-1.555-3.053-1.503-4.71-1.503h-5.588V30.58l6.779.726zm32.55-15.186c-1.552-1.763-4.088-2.592-6.468-2.592-5.124 0-8.849 3.577-8.849 8.604 0 6.116 5.123 10.107 10.97 10.107 2.691 0 5.641-1.036 7.711-2.591h.155l-2.743 5.028c-2.225.829-4.657 1.036-6.986 1.036-8.124 0-14.489-5.339-14.489-12.232 0-9.123 7.089-13.476 15.059-13.476 1.914 0 3.881.207 5.692.622v5.442h-.052v.052zm24.27 0c-1.552-1.763-4.088-2.592-6.468-2.592-5.123 0-8.849 3.577-8.849 8.604 0 6.116 5.123 10.107 10.97 10.107 2.691 0 5.641-1.036 7.711-2.591h.155l-2.743 5.028c-2.225.829-4.657 1.036-6.986 1.036-8.124 0-14.489-5.339-14.489-12.232 0-9.123 7.089-13.476 15.059-13.476 1.914 0 3.881.207 5.692.622v5.442h-.052v.052zm20.13 16.171c3.157 0 6.21-.88 8.642-2.799h.156l-2.64 4.976c-2.276.933-4.812 1.348-7.296 1.348-8.953-.052-15.111-5.702-15.111-13.062 0-7.36 5.33-12.699 13.196-12.699 7.193 0 12.109 5.184 11.902 12.025h-19.405c.103 6.428 4.605 10.211 10.556 10.211zm-3.519-18.763c-3.518 0-6.209 2.125-6.83 5.443h13.61c-.57-3.68-3.002-5.443-6.78-5.443zm40.52 21.407v.155h-8.849v-.155c2.328-1.348 2.018-3.214 2.018-5.65v-5.65h-12.006v5.598c0 2.436-.31 4.354 2.018 5.65v.155h-8.849v-.155c2.329-1.348 2.019-3.214 2.019-5.702V16.586c0-2.384.31-4.354-2.019-5.65v-.155h8.849v.104c-2.328 1.296-2.018 3.265-2.018 5.65v3.576h12.006v-3.525c0-2.436.31-4.354-2.018-5.65v-.155h8.849v.104c-2.329 1.296-2.019 3.265-2.019 5.701v12.647c0 2.488-.31 4.354 2.019 5.702zm2.898 0c2.018-1.037 2.018-2.696 2.018-5.08V16.016c0-2.488 0-4.043-2.018-5.131v-.156h8.849v.156c-2.018 1.088-2.018 2.643-2.018 5.131v15.446s1.242.207 3.312.207c2.121 0 3.363-.207 3.363-.207V16.016c0-2.488 0-4.043-2.018-5.131v-.156h8.849v.156c-2.018 1.088-2.018 2.643-2.018 5.131v15.446s1.19.207 3.312.207c2.121 0 3.363-.207 3.363-.207V16.016c0-2.488-.051-4.043-2.018-5.131v-.156h8.849v.156c-1.966 1.088-2.018 2.643-2.018 5.08v13.89c0 2.384 0 4.043 2.018 5.08v.155h-31.877v-.155h.052zm49.989-4.665v-8.345c-1.552.777-3.312 1.244-5.071 1.659-2.536.57-5.382 1.14-5.382 4.405 0 3.266 2.95 4.354 5.744 4.354 1.294 0 2.536-.363 3.829-.725l-3.104 3.99c-.88.156-1.863.26-2.743.26-5.33 0-9.056-3.37-9.056-7.775 0-9.848 15.783-5.287 15.783-11.04 0-2.54-3.105-3.37-5.071-3.37-2.691 0-4.813.986-7.193 2.126l3.519-5.287 3.415-.311c5.692 0 10.039 1.659 10.091 8.034v7.93c0 4.199.104 5.753 4.502 6.22l-2.328 3.473c-3.468-.311-6.935-1.348-6.935-5.598z" fill="#D24A43"/><path d="M276.752 17.156l-4.554 12.18c-1.604 4.251-3.57 6.324-6.572 6.324h-.155l-1.967-3.99h.828c2.019-.053 3.054-.57 3.985-2.696l5.02-12.491c.724-1.918 2.07-4.458-.466-5.546v-.156h6.934v.777c0 .519.518 1.866.725 2.437l5.537 14.927c1.501 4.043 2.536 5.494 3.933 6.064v.104h-8.849v-.104c1.5-.518 1.604-1.865.362-5.027l-4.761-12.803z" fill="#D24A43"/><path d="M78.037 50.018v2.021c0 .881-.103 1.555.725 2.022v.052h-3.209v-.052c.828-.467.725-1.14.725-2.074v-4.56c0-.882.103-1.556-.725-2.022v-.052h3.157v.052c-.828.466-.725 1.192-.725 2.021v1.296h1.346c.466-2.229 2.38-3.628 4.76-3.628 2.537 0 4.555 2.021 4.555 4.51 0 2.746-2.07 4.716-4.761 4.716-2.536 0-4.502-1.762-4.606-4.354h-1.242v.052zm5.9-3.68c-1.76 0-2.691 1.4-2.691 3.11 0 1.762.828 3.628 2.794 3.628 1.76 0 2.743-1.348 2.743-3.058 0-1.814-.828-3.68-2.847-3.68zm10.401-1.244h.052v1.347c.672-.88 2.07-1.347 3.105-1.347 2.639 0 4.347 2.021 4.347 4.51 0 2.643-1.915 4.716-4.606 4.716-.518 0-.983-.052-1.397-.26l-1.035-1.554c.672.31 1.345.57 2.07.57 2.018 0 3.001-1.348 3.001-3.265 0-1.763-.931-3.421-2.898-3.421-.776 0-1.552.31-2.122.933-.569.57-.517 1.295-.517 2.021v6.53c0 .882-.104 1.556.724 2.022v.052h-3.156v-.052c.828-.466.724-1.14.724-2.021v-8.449c0-.88.104-1.607-.724-2.021v-.052h1.242c.466 0 .931-.052 1.19-.26zm17.646 2.488l-3.777 5.442c-.621.778-1.346 1.192-2.329 1.503v-7.464c0-.725 0-1.244-.725-1.658v-.052h3.157v.052c-.724.414-.724.933-.724 1.658v4.665l4.139-6.012c.104-.104.156-.156.207-.311h2.433v.052c-.725.414-.725 1.192-.725 1.658v5.235c0 .674 0 1.244.725 1.659v.052h-3.312v-.052c.724-.415.828-.933.828-1.659v-4.768h.103zm5.537 5.235c.363-.104.621-.311.88-.933l1.863-4.51c.259-.673.724-1.606-.155-2.021v-.052h2.484v.311c0 .207.207.674.258.881l1.967 5.39c.155.364.31.675.466.934h.931l-.673 2.436h-.051c-.363-.881-.88-1.14-2.174-1.14h-3.674c-1.294 0-2.122.207-3.105 1.14h-.103l.828-2.436s.155.052.258 0zm5.848.052l-1.915-5.184-1.708 4.406c-.103.311-.258.622-.465.83h4.088v-.052zm12.161-5.287l-3.778 5.442c-.621.778-1.397 1.192-2.328 1.503v-7.464c0-.725 0-1.244-.725-1.658v-.052h3.157v.052c-.725.414-.725.933-.725 1.658v4.665l4.14-6.012c.104-.104.156-.156.207-.311h2.432v.052c-.724.414-.724 1.192-.724 1.658v5.235c0 .674 0 1.244.724 1.659v.052h-3.311v-.052c.724-.415.828-.933.828-1.659v-4.768h.103zm9.419 1.866a5.38 5.38 0 002.38-.57v-1.452c0-.88.103-1.555-.725-2.021v-.052h3.157v.052c-.828.466-.724 1.192-.724 2.073v4.561c0 .881-.104 1.555.724 2.022v.052h-3.157v-.052c.828-.467.725-1.14.725-2.022v-1.866a7.422 7.422 0 01-2.898.622c-1.19 0-2.794-.57-2.794-2.384v-.933c0-.881.103-1.555-.725-2.021v-.052h3.157v.052c-.828.466-.725 1.192-.725 2.073v.674c.052.777.725 1.244 1.605 1.244zm17.387 4.612v.053h-3.157v-.052c.828-.467.725-1.14.725-2.022v-2.021h-4.296v2.021c0 .881-.103 1.555.725 2.022v.052h-3.157v-.052c.828-.467.725-1.14.725-2.074v-4.56c0-.882.103-1.556-.725-2.022v-.052h3.157v.052c-.828.466-.725 1.192-.725 2.021v1.296h4.296v-1.296c0-.88.103-1.555-.725-2.021v-.052h3.157v.052c-.828.466-.725 1.192-.725 2.073v4.561c0 .83-.155 1.555.725 2.022zm8.746-1.71v-3.006c-.57.311-1.191.415-1.812.57-.931.207-1.966.415-1.966 1.555 0 1.192 1.087 1.555 2.07 1.555.466 0 .931-.155 1.345-.259l-1.138 1.451a6.344 6.344 0 01-.983.104c-1.915 0-3.261-1.244-3.261-2.799 0-3.525 5.693-1.918 5.693-3.991 0-.933-1.139-1.244-1.811-1.244-.984 0-1.708.363-2.588.777l1.294-1.917 1.242-.104c2.07 0 3.622.57 3.622 2.903v2.85c0 1.503.052 2.074 1.604 2.23l-.828 1.243c-1.242 0-2.483-.363-2.483-1.918zm29.134-6.945c-.88.622-.725 1.244-.725 2.073v4.51c0 .88-.103 1.554.725 2.073v.052h-3.157v-.052c.828-.467.725-1.192.725-2.074v-4.509c0-.881.103-1.607-.725-2.073v-.052h3.157v.052zm1.19 2.073c.259-.31.983-1.037.983-1.503 0-.26-.155-.415-.362-.57v-.052h2.898l-3.157 3.68 2.329 2.954c.569.778 1.138 1.607 2.018 2.126h-1.501c-1.086 0-1.552-.57-1.966-1.089l-2.794-3.835 1.552-1.71zm11.644-2.384c1.19 0 2.277.31 3.157 1.14a4.61 4.61 0 011.552 3.421c0 2.747-2.277 4.717-4.968 4.717-2.587 0-4.812-1.866-4.812-4.561 0-2.851 2.328-4.717 5.071-4.717zm-.207 1.244c-1.76 0-2.898 1.4-2.898 3.11 0 1.762 1.035 3.628 3.001 3.628 1.76 0 2.95-1.348 2.95-3.058-.052-1.814-1.035-3.68-3.053-3.68zm15.938-.985h2.795v.052c-.311.103-.518.518-.518.777l.88 6.531c.103.622.259.985.828 1.348v.051h-3.209v-.051c.466-.156.725-.726.673-1.192l-.724-5.65-2.743 7.049c-.673-.518-1.035-.83-1.345-1.607l-2.174-5.442-.724 5.131c-.156.778-.104 1.4.569 1.659v.052h-2.639v-.052c.569-.518.776-1.14.879-1.866l.777-5.598c.051-.363.103-.881-.518-1.244v-.052h2.846c0 .104.207.57.311.778l1.915 4.872 1.966-4.82c.052-.208.155-.467.155-.726zm15.887 8.707v.053h-3.156v-.052c.828-.467.724-1.14.724-2.022v-5.39c-.259-.052-.724-.052-1.19-.052h-2.018c-.414 0-.828.052-1.139.052v5.39c0 .881-.103 1.555.725 2.022v.052h-3.157v-.052c.828-.467.725-1.14.725-2.074v-4.56c0-.882.103-1.556-.725-2.022v-.052h9.211v.052c-.828.466-.724 1.192-.724 2.073v4.561c0 .83-.104 1.555.724 2.022zm8.746-1.71v-3.006c-.57.311-1.191.415-1.812.57-.931.208-1.914.415-1.914 1.555 0 1.192 1.086 1.555 2.07 1.555.465 0 .931-.155 1.345-.259l-1.138 1.451a6.344 6.344 0 01-.984.104c-1.914 0-3.26-1.244-3.26-2.799 0-3.525 5.693-1.918 5.693-3.991 0-.933-1.139-1.244-1.812-1.244-.983 0-1.707.363-2.587.777l1.294-1.917 1.19-.052c2.07 0 3.622.57 3.622 2.902v2.851c0 1.503.052 2.073 1.604 2.229l-.828 1.244c-1.241-.052-2.483-.415-2.483-1.97zm15.162 1.71v.053h-3.157v-.052c.828-.467.725-1.14.725-2.022v-2.021h-4.295v2.021c0 .881-.104 1.555.724 2.022v.052h-3.156v-.052c.827-.467.724-1.14.724-2.074v-4.56c0-.882.103-1.556-.724-2.022v-.052h3.156v.052c-.828.466-.724 1.192-.724 2.021v1.296h4.295v-1.296c0-.88.103-1.555-.725-2.021v-.052h3.157v.052c-.828.466-.724 1.192-.724 2.073v4.561c0 .83-.104 1.555.724 2.022zm5.951-9.018h.052v6.946c0 .88-.103 1.554.725 2.073v.052h-3.157v-.052c.828-.467.724-1.192.724-2.073v-4.562c0-.88.104-1.555-.724-2.021v-.052h1.138c.466 0 .932 0 1.242-.31zm-2.121-2.073c0-.674.621-1.14 1.242-1.14s1.138.57 1.138 1.192-.517 1.192-1.138 1.192c-.725 0-1.242-.57-1.242-1.244zm10.763 3.472c-.88-.051-1.708.363-1.708 1.296 0 1.037 1.242 1.555 2.277 1.659l.311.052c-1.242 1.97-2.329 3.42-2.846 3.99-.518.52-.984.778-1.76.778l-1.501-.052v-.051c.57-.208 1.501-1.037 2.277-2.022l1.656-2.073c-1.035-.311-2.173-1.089-2.173-2.333 0-1.503 1.087-2.228 2.95-2.228h4.295v.051c-.828.467-.725 1.193-.725 2.074v4.561c0 .881-.103 1.555.725 2.021v.052h-3.157v-.052c.828-.466.724-1.14.724-2.021v-5.598l-1.345-.104z" fill="#fff"/><path d="M41.347 32.343v-9.692H17.802V9.744h41.916V.104H8.176V22.65H0v9.692h41.347zM17.802 38.2H8.176v16.69h52.525V35.038h-9.625v10.16H17.801V38.2z" fill="#D24A43"/></svg>