<svg width="377" height="377" fill="none" xmlns="http://www.w3.org/2000/svg"><g clip-path="url(#clip0)"><g filter="url(#filter0_i)" fill="#fff"><path d="M374.205 158.512h.001l-48.14-31.915V19.922a6.244 6.244 0 00-6.244-6.244H57.169a6.244 6.244 0 00-6.243 6.244v106.682L2.794 158.512v.001A6.236 6.236 0 000 163.716v193.362a6.244 6.244 0 006.244 6.244h364.512a6.245 6.245 0 006.244-6.244V163.716a6.238 6.238 0 00-2.795-5.204zm-323.28 21.837L31.34 169.96h19.585v10.389zm-38.437-6.253l143.589 76.167-143.59 95.18V174.096zm176.01 69.658l161.54 107.08H26.958l161.54-107.08zm32.422 6.51l143.591-76.168v171.351L220.92 250.264zm105.146-80.304h19.594l-19.594 10.393V169.96zm23.972-12.488h-23.972v-15.893l23.972 15.893zm-36.46-131.306v160.811l-104.504 55.435-17.127-11.353a6.24 6.24 0 00-6.899 0l-17.125 11.351-104.51-55.437V26.166h250.165zM50.926 157.472H26.963l23.962-15.885v15.885z"/><path d="M188.496 177.886h49.747a6.245 6.245 0 000-12.488h-49.747c-23.987 0-43.502-19.515-43.502-43.502v-1.843c0-23.987 19.515-43.502 43.502-43.502 23.988 0 43.503 19.515 43.503 43.502v4.607c0 5.192-4.224 9.417-9.417 9.417-5.194 0-9.418-4.224-9.418-9.417v-8.752c0-14.872-12.099-26.972-26.971-26.972s-26.971 12.099-26.971 26.972c0 14.872 12.099 26.971 26.971 26.971 6.801 0 13.017-2.535 17.766-6.703 3.866 6.23 10.766 10.388 18.623 10.388 12.078 0 21.905-9.826 21.905-21.905v-4.607c0-30.873-25.117-55.99-55.991-55.99-30.873 0-55.99 25.117-55.99 55.99v1.843c0 30.874 25.117 55.991 55.99 55.991zm-2.303-47.495c-7.987 0-14.484-6.497-14.484-14.483 0-7.986 6.498-14.484 14.484-14.484 7.985 0 14.483 6.498 14.483 14.484s-6.497 14.483-14.483 14.483z"/></g><path fill="url(#paint0_linear)" d="M-83 163h542v201H-83z"/></g><defs><linearGradient id="paint0_linear" x1="188" y1="163" x2="188" y2="364" gradientUnits="userSpaceOnUse"><stop stop-color="#525252" stop-opacity="0"/><stop offset="1" stop-color="#525252"/></linearGradient><clipPath id="clip0"><path fill="#fff" d="M0 0h377v377H0z"/></clipPath><filter id="filter0_i" x="0" y="13.678" width="377" height="355.643" filterUnits="userSpaceOnUse" color-interpolation-filters="sRGB"><feFlood flood-opacity="0" result="BackgroundImageFix"/><feBlend in="SourceGraphic" in2="BackgroundImageFix" result="shape"/><feColorMatrix in="SourceAlpha" values="0 0 0 0 0 0 0 0 0 0 0 0 0 0 0 0 0 0 127 0" result="hardAlpha"/><feOffset dy="6"/><feGaussianBlur stdDeviation="8"/><feComposite in2="hardAlpha" operator="arithmetic" k2="-1" k3="1"/><feColorMatrix values="0 0 0 0 0 0 0 0 0 0 0 0 0 0 0 0 0 0 0.17 0"/><feBlend in2="shape" result="effect1_innerShadow"/></filter></defs></svg>