<svg width="542" height="250" viewBox="0 0 542 250" fill="none" xmlns="http://www.w3.org/2000/svg">
<g filter="url(#filter0_i)">
<path d="M196.5 148.25V180.25H177.75V210H143V180.25H60.25V148.25L118.5 35H155.5L97.5 148.25H143V106.75H177.75V148.25H196.5ZM278.77 213.5C256.936 213.5 239.77 205.25 227.27 188.75C214.936 172.083 208.77 150 208.77 122.5C208.77 95 214.936 73 227.27 56.5C239.77 39.8333 256.936 31.5 278.77 31.5C300.77 31.5 317.936 39.8333 330.27 56.5C342.603 73 348.77 95 348.77 122.5C348.77 150 342.603 172.083 330.27 188.75C317.936 205.25 300.77 213.5 278.77 213.5ZM252.27 165.25C258.27 174.917 267.103 179.75 278.77 179.75C290.436 179.75 299.27 174.833 305.27 165C311.436 155.167 314.52 141 314.52 122.5C314.52 103.833 311.436 89.5833 305.27 79.75C299.27 69.9167 290.436 65 278.77 65C267.103 65 258.27 69.9167 252.27 79.75C246.27 89.5833 243.27 103.833 243.27 122.5C243.27 141.167 246.27 155.417 252.27 165.25ZM498.99 148.25V180.25H480.24V210H445.49V180.25H362.74V148.25L420.99 35H457.99L399.99 148.25H445.49V106.75H480.24V148.25H498.99Z" fill="white"/>
</g>
<rect y="107" width="542" height="124" fill="url(#paint0_linear)"/>
<defs>
<filter id="filter0_i" x="60.25" y="31.5" width="438.74" height="188" filterUnits="userSpaceOnUse" color-interpolation-filters="sRGB">
<feFlood flood-opacity="0" result="BackgroundImageFix"/>
<feBlend mode="normal" in="SourceGraphic" in2="BackgroundImageFix" result="shape"/>
<feColorMatrix in="SourceAlpha" type="matrix" values="0 0 0 0 0 0 0 0 0 0 0 0 0 0 0 0 0 0 127 0" result="hardAlpha"/>
<feOffset dy="6"/>
<feGaussianBlur stdDeviation="8"/>
<feComposite in2="hardAlpha" operator="arithmetic" k2="-1" k3="1"/>
<feColorMatrix type="matrix" values="0 0 0 0 0 0 0 0 0 0 0 0 0 0 0 0 0 0 0.17 0"/>
<feBlend mode="normal" in2="shape" result="effect1_innerShadow"/>
</filter>
<linearGradient id="paint0_linear" x1="271" y1="107" x2="271" y2="231" gradientUnits="userSpaceOnUse">
<stop stop-color="#525252" stop-opacity="0"/>
<stop offset="1" stop-color="#525252"/>
</linearGradient>
</defs>
</svg>
