<svg width="290" height="58" viewBox="0 0 290 58" fill="none" xmlns="http://www.w3.org/2000/svg">
<path d="M89.37 31.3065C92.8372 31.6175 96.5114 30.529 99.1505 28.1966H99.3058L96.9253 35.1421H74.8804V34.9866C77.5713 34.0536 77.2608 30.1144 77.2608 27.7301V7.72297C77.2608 5.28686 77.5713 1.39946 74.8804 0.414656V0.25916H93.4582C94.3379 0.25916 95.2694 0.362824 95.9421 0H96.0974V6.16801H95.9421C94.2862 4.25022 92.1127 4.0429 89.6805 4.0429C87.8176 4.0429 84.3504 4.09473 82.6427 4.40572V14.2538H90.5602C91.3882 14.2538 92.268 14.2538 92.8889 13.9428H93.0442V19.5407H92.8889C92.061 17.9857 89.8358 18.0375 88.1798 18.0375H82.5909V30.5809L89.37 31.3065Z" fill="#D24A43"/>
<path d="M121.92 16.1197C120.368 14.3574 117.832 13.5281 115.452 13.5281C110.328 13.5281 106.603 17.1045 106.603 22.1322C106.603 28.2484 111.726 32.2395 117.573 32.2395C120.264 32.2395 123.214 31.2028 125.284 29.6479H125.439L122.696 34.6756C120.471 35.5049 118.039 35.7122 115.71 35.7122C107.586 35.7122 101.221 30.3735 101.221 23.4799C101.221 14.3574 108.31 10.0035 116.28 10.0035C118.194 10.0035 120.161 10.2109 121.972 10.6255V16.0679H121.92V16.1197Z" fill="#D24A43"/>
<path d="M146.19 16.1197C144.638 14.3574 142.102 13.5281 139.722 13.5281C134.599 13.5281 130.873 17.1045 130.873 22.1322C130.873 28.2484 135.996 32.2395 141.843 32.2395C144.534 32.2395 147.484 31.2028 149.554 29.6479H149.709L146.966 34.6756C144.741 35.5049 142.309 35.7122 139.98 35.7122C131.856 35.7122 125.491 30.3735 125.491 23.4799C125.491 14.3574 132.58 10.0035 140.55 10.0035C142.464 10.0035 144.431 10.2109 146.242 10.6255V16.0679H146.19V16.1197Z" fill="#D24A43"/>
<path d="M166.32 32.2913C169.477 32.2913 172.53 31.4102 174.962 29.4924H175.118L172.478 34.4683C170.202 35.4013 167.666 35.8159 165.182 35.8159C156.229 35.7641 150.071 30.1144 150.071 22.7543C150.071 15.3941 155.401 10.0554 163.267 10.0554C170.46 10.0554 175.376 15.2386 175.169 22.0804H155.764C155.867 28.5076 160.369 32.2913 166.32 32.2913ZM162.801 13.5282C159.283 13.5282 156.592 15.6533 155.971 18.9705H169.581C169.011 15.2905 166.579 13.5282 162.801 13.5282Z" fill="#D24A43"/>
<path d="M203.321 34.9347V35.0902H194.472V34.9347C196.8 33.5871 196.49 31.7211 196.49 29.285V23.6353H184.484V29.2332C184.484 31.6693 184.174 33.5871 186.502 34.8829V35.0384H177.653V34.8829C179.982 33.5353 179.672 31.6693 179.672 29.1814V16.5862C179.672 14.2019 179.982 12.2323 177.653 10.9365V10.781H186.502V10.8847C184.174 12.1805 184.484 14.1501 184.484 16.5344V20.1108H196.49V16.5862C196.49 14.1501 196.8 12.2323 194.472 10.9365V10.781H203.321V10.8847C200.992 12.1805 201.302 14.1501 201.302 16.5862V29.2332C201.302 31.7211 200.992 33.5871 203.321 34.9347Z" fill="#D24A43"/>
<path d="M206.219 34.9348C208.237 33.8981 208.237 32.2395 208.237 29.8552V16.0161C208.237 13.5282 208.237 11.9732 206.219 10.8847V10.7292H215.068V10.8847C213.05 11.9732 213.05 13.5282 213.05 16.0161V31.462C213.05 31.462 214.292 31.6694 216.362 31.6694C218.483 31.6694 219.725 31.462 219.725 31.462V16.0161C219.725 13.5282 219.725 11.9732 217.707 10.8847V10.7292H226.556V10.8847C224.538 11.9732 224.538 13.5282 224.538 16.0161V31.462C224.538 31.462 225.728 31.6694 227.85 31.6694C229.971 31.6694 231.213 31.462 231.213 31.462V16.0161C231.213 13.5282 231.162 11.9732 229.195 10.8847V10.7292H238.044V10.8847C236.078 11.9732 236.026 13.5282 236.026 15.9643V29.8552C236.026 32.2395 236.026 33.8981 238.044 34.9348V35.0903H206.167V34.9348H206.219Z" fill="#D24A43"/>
<path d="M256.208 30.2699V21.925C254.656 22.7024 252.896 23.1689 251.137 23.5836C248.601 24.1537 245.755 24.7239 245.755 27.9893C245.755 31.2547 248.705 32.3432 251.499 32.3432C252.793 32.3432 254.035 31.9804 255.328 31.6176L252.224 35.6086C251.344 35.7641 250.361 35.8678 249.481 35.8678C244.151 35.8678 240.425 32.4987 240.425 28.093C240.425 18.2449 256.208 22.8061 256.208 17.0528C256.208 14.513 253.103 13.6837 251.137 13.6837C248.446 13.6837 246.324 14.6685 243.944 15.8088L247.463 10.5219L250.878 10.2109C256.57 10.2109 260.917 11.8696 260.969 18.2449V26.1752C260.969 30.3736 261.073 31.9285 265.471 32.395L263.143 35.8678C259.675 35.5568 256.208 34.5201 256.208 30.2699Z" fill="#D24A43"/>
<path d="M276.752 17.1563L272.198 29.3369C270.594 33.5871 268.628 35.6604 265.626 35.6604H265.471L263.504 31.6693H264.332C266.351 31.6175 267.386 31.0991 268.317 28.974L273.337 16.4825C274.061 14.5647 275.407 12.025 272.871 10.9365V10.781H279.805V11.5585C279.805 12.0768 280.323 13.4244 280.53 13.9946L286.067 28.9222C287.568 32.9651 288.603 34.4164 290 34.9865V35.0902H281.151V34.9865C282.651 34.4682 282.755 33.1206 281.513 29.9588L276.752 17.1563Z" fill="#D24A43"/>
<path d="M78.0372 50.0179V52.0394C78.0372 52.9205 77.9337 53.5943 78.7616 54.0608V54.1126H75.5532V54.0608C76.3812 53.5943 76.2777 52.9205 76.2777 51.9875V47.4263C76.2777 46.5452 76.3812 45.8714 75.5532 45.4049V45.353H78.7099V45.4049C77.8819 45.8714 77.9854 46.597 77.9854 47.4263V48.7221H79.3309C79.7966 46.4933 81.7113 45.0939 84.0918 45.0939C86.6275 45.0939 88.6457 47.1153 88.6457 49.6033C88.6457 52.3503 86.5757 54.32 83.8848 54.32C81.3491 54.32 79.3826 52.5577 79.2791 49.9661H78.0372V50.0179ZM83.9365 46.3378C82.1771 46.3378 81.2456 47.7373 81.2456 49.4478C81.2456 51.21 82.0736 53.076 84.04 53.076C85.7995 53.076 86.7827 51.7284 86.7827 50.0179C86.7827 48.2038 85.9547 46.3378 83.9365 46.3378Z" fill="white"/>
<path d="M94.338 45.0939H94.3897V46.4415C95.0624 45.5604 96.4596 45.0939 97.4946 45.0939C100.134 45.0939 101.842 47.1153 101.842 49.6033C101.842 52.2467 99.9268 54.32 97.2359 54.32C96.7184 54.32 96.2526 54.2681 95.8387 54.0608L94.8037 52.5058C95.4764 52.8168 96.1492 53.076 96.8736 53.076C98.8918 53.076 99.8751 51.7284 99.8751 49.8106C99.8751 48.0483 98.9436 46.3897 96.9771 46.3897C96.2009 46.3897 95.4247 46.7007 94.8554 47.3226C94.2862 47.8928 94.338 48.6184 94.338 49.3441V55.8749C94.338 56.7561 94.2344 57.4299 95.0624 57.8964V57.9482H91.9058V57.8964C92.7337 57.4299 92.6302 56.7561 92.6302 55.8749V47.4263C92.6302 46.5452 92.7337 45.8195 91.9058 45.4049V45.353H93.1477C93.6135 45.353 94.0792 45.3012 94.338 45.0939Z" fill="white"/>
<path d="M111.984 47.5818L108.207 53.0242C107.586 53.8016 106.861 54.2163 105.878 54.5273V47.0635C105.878 46.3378 105.878 45.8195 105.153 45.4049V45.353H108.31V45.4049C107.586 45.8195 107.586 46.3378 107.586 47.0635V51.7284L111.725 45.7158C111.829 45.6122 111.881 45.5604 111.932 45.4049H114.365V45.4567C113.64 45.8713 113.64 46.6488 113.64 47.1153V52.3503C113.64 53.0242 113.64 53.5943 114.365 54.009V54.0608H111.053V54.009C111.777 53.5943 111.881 53.076 111.881 52.3503V47.5818H111.984Z" fill="white"/>
<path d="M117.521 52.8168C117.884 52.7131 118.142 52.5058 118.401 51.8838L120.264 47.3744C120.523 46.7006 120.988 45.7676 120.109 45.353V45.3011H122.593V45.6121C122.593 45.8195 122.8 46.286 122.851 46.4933L124.818 51.8838C124.973 52.2466 125.128 52.5576 125.284 52.8168H126.215L125.542 55.2529H125.491C125.128 54.3717 124.611 54.1126 123.317 54.1126H119.643C118.349 54.1126 117.521 54.3199 116.538 55.2529H116.435L117.263 52.8168C117.263 52.8168 117.418 52.8686 117.521 52.8168ZM123.369 52.8686L121.454 47.6854L119.746 52.0911C119.643 52.4021 119.488 52.7131 119.281 52.9204H123.369V52.8686Z" fill="white"/>
<path d="M135.53 47.5818L131.752 53.0242C131.131 53.8016 130.355 54.2163 129.424 54.5273V47.0635C129.424 46.3378 129.424 45.8195 128.699 45.4049V45.353H131.856V45.4049C131.131 45.8195 131.131 46.3378 131.131 47.0635V51.7284L135.271 45.7158C135.375 45.6122 135.427 45.5604 135.478 45.4049H137.91V45.4567C137.186 45.8713 137.186 46.6488 137.186 47.1153V52.3503C137.186 53.0242 137.186 53.5943 137.91 54.009V54.0608H134.599V54.009C135.323 53.5943 135.427 53.076 135.427 52.3503V47.5818H135.53Z" fill="white"/>
<path d="M144.949 49.4478C145.777 49.4478 146.604 49.2404 147.329 48.8776V47.4263C147.329 46.5452 147.432 45.8713 146.604 45.4049V45.353H149.761V45.4049C148.933 45.8713 149.037 46.597 149.037 47.4781V52.0394C149.037 52.9205 148.933 53.5943 149.761 54.0608V54.1126H146.604V54.0608C147.432 53.5943 147.329 52.9205 147.329 52.0394V50.1734C146.501 50.5362 145.466 50.7954 144.431 50.7954C143.241 50.7954 141.637 50.2252 141.637 48.4111V47.4781C141.637 46.597 141.74 45.9232 140.912 45.4567V45.4049H144.069V45.4567C143.241 45.9232 143.344 46.6488 143.344 47.53V48.2038C143.396 48.9813 144.069 49.4478 144.949 49.4478Z" fill="white"/>
<path d="M162.336 54.0608V54.1126H159.179V54.0608C160.007 53.5943 159.904 52.9205 159.904 52.0394V50.0179H155.608V52.0394C155.608 52.9205 155.505 53.5943 156.333 54.0608V54.1126H153.176V54.0608C154.004 53.5943 153.901 52.9205 153.901 51.9875V47.4263C153.901 46.5452 154.004 45.8713 153.176 45.4049V45.353H156.333V45.4049C155.505 45.8713 155.608 46.597 155.608 47.4263V48.7221H159.904V47.4263C159.904 46.5452 160.007 45.8713 159.179 45.4049V45.353H162.336V45.4049C161.508 45.8713 161.611 46.597 161.611 47.4781V52.0394C161.611 52.8687 161.456 53.5943 162.336 54.0608Z" fill="white"/>
<path d="M171.082 52.3503V49.344C170.512 49.655 169.891 49.7587 169.27 49.9142C168.339 50.1215 167.304 50.3289 167.304 51.4692C167.304 52.6613 168.391 53.0241 169.374 53.0241C169.84 53.0241 170.305 52.8686 170.719 52.765L169.581 54.2163C169.27 54.2681 168.908 54.3199 168.598 54.3199C166.683 54.3199 165.337 53.076 165.337 51.521C165.337 47.9964 171.03 49.6032 171.03 47.5299C171.03 46.5969 169.891 46.286 169.219 46.286C168.235 46.286 167.511 46.6488 166.631 47.0634L167.925 45.1457L169.167 45.042C171.237 45.042 172.789 45.6121 172.789 47.9446V50.7953C172.789 52.2985 172.841 52.8686 174.393 53.0241L173.565 54.2681C172.323 54.2681 171.082 53.9053 171.082 52.3503Z" fill="white"/>
<path d="M200.216 45.4049C199.336 46.0268 199.491 46.6488 199.491 47.4781V51.9875C199.491 52.8687 199.388 53.5425 200.216 54.0608V54.1126H197.059V54.0608C197.887 53.5943 197.784 52.8687 197.784 51.9875V47.4781C197.784 46.597 197.887 45.8713 197.059 45.4049V45.353H200.216V45.4049ZM201.406 47.4781C201.665 47.1671 202.389 46.4415 202.389 45.975C202.389 45.7158 202.234 45.5604 202.027 45.4049V45.353H204.925L201.768 49.0331L204.097 51.9875C204.666 52.765 205.235 53.5943 206.115 54.1126H204.614C203.528 54.1126 203.062 53.5425 202.648 53.0242L199.854 49.1886L201.406 47.4781Z" fill="white"/>
<path d="M213.05 45.0939C214.24 45.0939 215.327 45.4049 216.207 46.2342C217.19 47.1153 217.759 48.3593 217.759 49.6551C217.759 52.4022 215.482 54.3718 212.791 54.3718C210.204 54.3718 207.979 52.5058 207.979 49.8106C207.979 46.9598 210.307 45.0939 213.05 45.0939ZM212.843 46.3378C211.083 46.3378 209.945 47.7373 209.945 49.4478C209.945 51.21 210.98 53.076 212.946 53.076C214.706 53.076 215.896 51.7284 215.896 50.0179C215.844 48.2038 214.861 46.3378 212.843 46.3378Z" fill="white"/>
<path d="M228.781 45.3529H231.576V45.4048C231.265 45.5084 231.058 45.9231 231.058 46.1822L231.938 52.7131C232.041 53.3351 232.197 53.6979 232.766 54.0607V54.1125H229.557V54.0607C230.023 53.9052 230.282 53.3351 230.23 52.8686L229.506 47.2189L226.763 54.268C226.09 53.7497 225.728 53.4387 225.418 52.6612L223.244 47.2189L222.52 52.3502C222.364 53.1277 222.416 53.7497 223.089 54.0089V54.0607H220.45V54.0089C221.019 53.4906 221.226 52.8686 221.329 52.1429L222.106 46.5451C222.157 46.1822 222.209 45.6639 221.588 45.3011V45.2493H223.089H224.434C224.434 45.3529 224.641 45.8194 224.745 46.0267L226.66 50.899L228.626 46.0786C228.678 45.8713 228.781 45.6121 228.781 45.3529Z" fill="white"/>
<path d="M244.668 54.0608V54.1126H241.512V54.0608C242.34 53.5943 242.236 52.9205 242.236 52.0394V46.6488C241.977 46.597 241.512 46.597 241.046 46.597H239.028C238.614 46.597 238.2 46.6488 237.889 46.6488V52.0394C237.889 52.9205 237.786 53.5943 238.614 54.0608V54.1126H235.457V54.0608C236.285 53.5943 236.182 52.9205 236.182 51.9875V47.4263C236.182 46.5452 236.285 45.8713 235.457 45.4049V45.353H244.668V45.4049C243.84 45.8713 243.944 46.597 243.944 47.4781V52.0394C243.944 52.8687 243.84 53.5943 244.668 54.0608Z" fill="white"/>
<path d="M253.414 52.3503V49.3441C252.844 49.6551 252.223 49.7588 251.602 49.9142C250.671 50.1216 249.688 50.3289 249.688 51.4692C249.688 52.6613 250.774 53.0242 251.758 53.0242C252.223 53.0242 252.689 52.8687 253.103 52.765L251.965 54.2163C251.654 54.2681 251.292 54.32 250.981 54.32C249.067 54.32 247.721 53.076 247.721 51.521C247.721 47.9965 253.414 49.6033 253.414 47.53C253.414 46.597 252.275 46.286 251.602 46.286C250.619 46.286 249.895 46.6488 249.015 47.0635L250.309 45.1457L251.499 45.0939C253.569 45.0939 255.121 45.664 255.121 47.9965V50.8472C255.121 52.3503 255.173 52.9205 256.725 53.076L255.897 54.32C254.656 54.2681 253.414 53.9053 253.414 52.3503Z" fill="white"/>
<path d="M268.576 54.0608V54.1126H265.419V54.0608C266.247 53.5943 266.144 52.9205 266.144 52.0394V50.0179H261.849V52.0394C261.849 52.9205 261.745 53.5943 262.573 54.0608V54.1126H259.417V54.0608C260.244 53.5943 260.141 52.9205 260.141 51.9875V47.4263C260.141 46.5452 260.244 45.8713 259.417 45.4049V45.353H262.573V45.4049C261.745 45.8713 261.849 46.597 261.849 47.4263V48.7221H266.144V47.4263C266.144 46.5452 266.247 45.8713 265.419 45.4049V45.353H268.576V45.4049C267.748 45.8713 267.852 46.597 267.852 47.4781V52.0394C267.852 52.8687 267.748 53.5943 268.576 54.0608Z" fill="white"/>
<path d="M274.527 45.0421H274.579V51.9876C274.579 52.8687 274.476 53.5425 275.304 54.0608V54.1127H272.147V54.0608C272.975 53.5944 272.871 52.8687 272.871 51.9876V47.4263C272.871 46.5452 272.975 45.8714 272.147 45.4049V45.3531H273.285C273.751 45.3531 274.217 45.3531 274.527 45.0421ZM272.406 42.9688C272.406 42.295 273.027 41.8285 273.648 41.8285C274.269 41.8285 274.786 42.3986 274.786 43.0206C274.786 43.6426 274.269 44.2128 273.648 44.2128C272.923 44.2128 272.406 43.6426 272.406 42.9688Z" fill="white"/>
<path d="M283.169 46.4415C282.289 46.3896 281.461 46.8043 281.461 47.7373C281.461 48.7739 282.703 49.2922 283.738 49.3959L284.049 49.4477C282.807 51.4173 281.72 52.8686 281.203 53.4388C280.685 53.9571 280.219 54.2163 279.443 54.2163L277.942 54.1644V54.1126C278.512 53.9053 279.443 53.076 280.219 52.0912L281.875 50.0179C280.84 49.7069 279.702 48.9294 279.702 47.6854C279.702 46.1823 280.789 45.4567 282.652 45.4567H286.947V45.5085C286.119 45.975 286.222 46.7006 286.222 47.5818V52.143C286.222 53.0241 286.119 53.698 286.947 54.1644V54.2163H283.79V54.1644C284.618 53.698 284.514 53.0241 284.514 52.143V46.5451L283.169 46.4415Z" fill="white"/>
<path d="M41.3472 32.3431V22.6506H17.8016V9.74439H59.7181V0.103638H8.1763V22.6506H0V32.3431H8.1763H41.3472Z" fill="#D24A43"/>
<path d="M17.8015 38.2002H8.17627V54.8901H60.7012V35.0385H51.076V45.1975H17.8015V38.2002Z" fill="#D24A43"/>
</svg>
