<svg width="377" height="377" viewBox="0 0 377 377" fill="none" xmlns="http://www.w3.org/2000/svg">
<g clip-path="url(#clip0)">
<g filter="url(#filter0_i)">
<path d="M374.205 158.512L374.206 158.512L326.066 126.597V19.9223C326.066 16.474 323.271 13.6783 319.822 13.6783H57.1694C53.7211 13.6783 50.9255 16.474 50.9255 19.9223V126.604L2.79395 158.512L2.79478 158.513C1.11142 159.631 0 161.543 0 163.716V357.078C0 360.526 2.79561 363.322 6.24393 363.322H370.756C374.204 363.322 377 360.526 377 357.078V163.716C377 161.543 375.889 159.631 374.205 158.512ZM50.9255 180.349L31.3404 169.96H50.9255V180.349ZM12.4879 174.096L156.077 250.263L12.4879 345.443V174.096ZM188.498 243.754L350.038 350.834H26.9579L188.498 243.754ZM220.92 250.264L364.511 174.096V345.447L220.92 250.264ZM326.066 169.96H345.66L326.066 180.353V169.96ZM350.038 157.472H326.066V141.579L350.038 157.472ZM313.578 26.1662V186.977L209.074 242.412L191.947 231.059C189.856 229.672 187.138 229.672 185.048 231.059L167.923 242.41L63.4133 186.973V26.1662H313.578ZM50.9255 157.472H26.9638L50.9255 141.587V157.472Z" fill="white"/>
<path d="M188.496 177.886H238.243C241.691 177.886 244.487 175.09 244.487 171.642C244.487 168.194 241.691 165.398 238.243 165.398H188.496C164.509 165.398 144.994 145.883 144.994 121.896V120.053C144.994 96.0656 164.509 76.5505 188.496 76.5505C212.484 76.5505 231.999 96.0656 231.999 120.053V124.66C231.999 129.852 227.775 134.077 222.582 134.077C217.388 134.077 213.164 129.853 213.164 124.66V115.908C213.164 101.036 201.065 88.9359 186.193 88.9359C171.321 88.9359 159.222 101.035 159.222 115.908C159.222 130.78 171.321 142.879 186.193 142.879C192.994 142.879 199.21 140.344 203.959 136.176C207.825 142.406 214.725 146.564 222.582 146.564C234.66 146.564 244.487 136.738 244.487 124.659V120.052C244.487 89.179 219.37 64.0618 188.496 64.0618C157.623 64.0618 132.506 89.179 132.506 120.052V121.895C132.506 152.769 157.623 177.886 188.496 177.886ZM186.193 130.391C178.206 130.391 171.709 123.894 171.709 115.908C171.709 107.922 178.207 101.424 186.193 101.424C194.178 101.424 200.676 107.922 200.676 115.908C200.676 123.894 194.179 130.391 186.193 130.391Z" fill="white"/>
</g>
<rect x="-83" y="163" width="542" height="201" fill="url(#paint0_linear)"/>
</g>
<defs>
<filter id="filter0_i" x="0" y="13.6783" width="377" height="355.643" filterUnits="userSpaceOnUse" color-interpolation-filters="sRGB">
<feFlood flood-opacity="0" result="BackgroundImageFix"/>
<feBlend mode="normal" in="SourceGraphic" in2="BackgroundImageFix" result="shape"/>
<feColorMatrix in="SourceAlpha" type="matrix" values="0 0 0 0 0 0 0 0 0 0 0 0 0 0 0 0 0 0 127 0" result="hardAlpha"/>
<feOffset dy="6"/>
<feGaussianBlur stdDeviation="8"/>
<feComposite in2="hardAlpha" operator="arithmetic" k2="-1" k3="1"/>
<feColorMatrix type="matrix" values="0 0 0 0 0 0 0 0 0 0 0 0 0 0 0 0 0 0 0.17 0"/>
<feBlend mode="normal" in2="shape" result="effect1_innerShadow"/>
</filter>
<linearGradient id="paint0_linear" x1="188" y1="163" x2="188" y2="364" gradientUnits="userSpaceOnUse">
<stop stop-color="#525252" stop-opacity="0"/>
<stop offset="1" stop-color="#525252"/>
</linearGradient>
<clipPath id="clip0">
<rect width="377" height="377" fill="white"/>
</clipPath>
</defs>
</svg>
